# xmcd
#
# Track frame offsets: 
#        150
#        19317
#        36496
#        50639
#        79710
#        103351
#        124727
#        146296
#        190625
#        207736
#        228427
#
# Disc length: 3337 seconds
#
# Revision: 0
# Processed by: cddbd v1.5.2PL0 Copyright (c) Steve Scherf et al.
# Submitted via: ExactAudioCopyFreeDBPlugin 1.0
#
DISCID=9f0d070b
DTITLE=King King featuring Alan Nimmo - Take my Hand
DYEAR=2011
DGENRE=Blues
TTITLE0=Lose Control
TTITLE1=Take My Hand
TTITLE2=Don't You get The Feeling (You've Been Had)
TTITLE3=Feels Like Rain
TTITLE4=Heart Without A Soul
TTITLE5=All Your Life
TTITLE6=I'll Fight My Way
TTITLE7=Old Love
TTITLE8=Broken Heal
TTITLE9=Mr. Highway Man
TTITLE10=Nothing Takes The Place Of You
EXTD=
EXTT0=
EXTT1=
EXTT2=
EXTT3=
EXTT4=
EXTT5=
EXTT6=
EXTT7=
EXTT8=
EXTT9=
EXTT10=
PLAYORDER=
